# xmcd
#
# Track frame offsets:
# 182
# 18402
# 32877
# 47450
# 62360
# 78462
# 92635
# 106385
# 130905
# 146277
# 159480
# 183415
# 200372
# 215552
#
# Disc length: 4026 seconds
#
#
# Revision: 1
# Processed by: cddbd v1.5.1PL0 Copyright (c) Steve Scherf et al.
# Submitted via: FreeRIP 2.941 
#
DISCID=b60fb80e
DTITLE=Various Artist - Rockstar Music 1992
DYEAR=1992
DGENRE=Blues
TTITLE0=Fats Waller - Ain't Misbehavin'
TTITLE1=Cab Calloway - Minnie The Moocher
TTITLE2=Billie Holiday - Louis Armstrong - You Can't Lose A Broken Heart
TTITLE3=Billie Holiday - Louis Armstrong - My Sweet Hunk O'Trash
TTITLE4=Count Basie - Lady Be Good
TTITLE5=Charlie Parker - Lady Be Good
TTITLE6=Charlie Parker - Parker's Mood
TTITLE7=Nina Simone - You'd Be So Nice To Come Home To
TTITLE8=Lionel Hampton - The Man I Love
TTITLE9=Lester Young - These Foolish Things
TTITLE10=Dinah Washington - Blue Gardenia
TTITLE11=Lena Horne - Stormy Weather
TTITLE12=Sarah Vaughan - Lover Man
TTITLE13=Duke Ellington - Medley Live In Paris
EXTD=
EXTT0=
EXTT1=
EXTT2=
EXTT3=
EXTT4=
EXTT5=
EXTT6=
EXTT7=
EXTT8=
EXTT9=
EXTT10=
EXTT11=
EXTT12=
EXTT13=
PLAYORDER=
